<?xml version="1.0" standalone="no"?>
<!DOCTYPE svg PUBLIC "-//W3C//DTD SVG 20010904//EN"
 "http://www.w3.org/TR/2001/REC-SVG-20010904/DTD/svg10.dtd">
<svg version="1.0" xmlns="http://www.w3.org/2000/svg"
 width="200.000000pt" height="200.000000pt" viewBox="0 0 200.000000 200.000000"
 preserveAspectRatio="xMidYMid meet">
<metadata>
Created by potrace 1.14, written by Peter Selinger 2001-2017
</metadata>
<g transform="translate(0.000000,200.000000) scale(0.100000,-0.100000)"
fill="#000000" stroke="none">
<path d="M971 1677 c-6 -8 -8 -17 -4 -20 3 -4 1 -7 -5 -7 -7 0 -12 4 -12 10 0
16 -29 -1 -35 -21 -5 -16 -9 -18 -21 -8 -12 9 -13 9 -9 -3 3 -8 -1 -21 -10
-28 -12 -10 -15 -10 -15 4 0 11 5 14 12 10 7 -5 8 -3 3 6 -6 9 -13 6 -29 -12
-11 -13 -17 -18 -12 -11 6 10 4 12 -8 7 -9 -3 -16 -10 -16 -14 0 -8 -49 -25
-62 -22 -5 1 -8 -3 -8 -8 0 -5 -7 -10 -16 -10 -9 0 -12 5 -8 12 4 7 3 8 -5 4
-15 -9 -73 26 -106 65 l-25 30 -40 -22 c-26 -15 -39 -28 -35 -37 5 -13 -29
-52 -45 -52 -11 0 -49 48 -43 54 4 3 0 6 -8 6 -8 0 -20 9 -27 20 -17 27 -39
25 -92 -10 -25 -16 -54 -36 -64 -42 -11 -7 -27 -20 -36 -28 -29 -26 -61 -45
-72 -42 -5 1 -7 -2 -4 -7 3 -5 -1 -14 -9 -21 -12 -10 -12 -15 2 -36 8 -13 12
-24 8 -24 -3 0 1 -7 10 -16 9 -9 14 -23 11 -31 -3 -8 -1 -11 4 -8 6 3 10 -1
10 -9 0 -24 2 -30 18 -45 11 -11 11 -15 0 -22 -11 -7 -11 -9 0 -9 7 0 11 -4 8
-9 -7 -11 4 -42 13 -37 3 2 6 -6 6 -19 0 -13 -3 -21 -7 -19 -4 3 -5 -2 -2 -10
3 -9 9 -14 13 -11 4 2 8 -2 8 -10 0 -8 -5 -15 -11 -15 -6 0 -5 -4 3 -9 11 -7
11 -13 0 -32 -10 -20 -10 -22 2 -12 21 17 20 -136 -1 -155 -8 -8 -9 -11 -2 -7
7 4 12 0 12 -9 0 -8 -6 -17 -12 -19 -10 -4 -10 -6 -1 -6 9 -1 10 -8 3 -27 -6
-15 -6 -23 -1 -19 6 3 14 -3 20 -12 6 -10 11 -13 11 -6 0 6 14 14 30 18 19 4
28 11 24 18 -5 9 -4 9 6 0 7 -6 19 -9 26 -6 8 3 14 0 14 -5 0 -6 -9 -9 -19 -7
-19 3 -23 -16 -7 -32 4 -4 7 -3 6 2 -5 22 1 27 17 14 14 -12 16 -12 8 0 -6 11
-2 13 24 8 18 -4 30 -3 27 1 -3 5 1 9 9 9 8 0 12 -4 9 -9 -3 -4 6 -13 20 -20
14 -6 26 -15 26 -20 0 -5 -4 -7 -9 -3 -5 3 -12 1 -16 -4 -6 -11 26 -7 48 5 9
5 9 4 0 -6 -6 -7 -9 -19 -6 -28 5 -10 2 -13 -6 -8 -10 6 -10 4 0 -12 7 -12 16
-19 20 -16 9 5 23 -26 20 -45 -1 -8 2 -10 10 -5 8 5 10 3 5 -5 -5 -7 -10 -10
-13 -7 -3 3 -12 -2 -20 -10 -8 -8 -18 -12 -22 -10 -4 3 -8 -1 -8 -9 0 -8 4
-12 8 -9 9 5 40 -36 34 -47 -3 -4 2 -10 11 -13 9 -3 14 -13 10 -21 -3 -8 0
-17 6 -21 7 -5 8 -2 4 7 -4 8 0 5 8 -6 9 -11 14 -25 12 -31 -3 -7 5 -15 17
-18 12 -3 18 -8 14 -12 -4 -4 1 -17 10 -28 18 -20 17 -20 -2 -6 -18 14 -19 13
-8 -1 7 -9 10 -19 6 -23 -4 -4 1 -4 12 0 15 6 17 4 12 -9 -4 -12 -1 -17 11
-17 15 0 15 -2 2 -10 -13 -8 -12 -10 3 -10 10 0 15 -4 12 -10 -3 -5 -1 -10 4
-10 6 0 12 -10 12 -22 1 -21 2 -21 6 -3 5 21 30 45 46 45 5 0 7 -6 4 -13 -2
-7 10 -30 28 -51 l32 -38 -5 31 c-3 20 0 31 7 31 7 0 9 5 6 10 -3 6 -2 10 4
10 19 0 21 -19 4 -29 -10 -6 -13 -10 -8 -11 6 0 16 4 24 9 13 8 13 12 1 26
-13 16 -25 53 -13 41 3 -3 12 2 20 12 12 16 13 16 6 -2 -5 -14 -3 -17 6 -12 7
5 11 16 8 25 -3 12 2 17 19 17 12 0 20 -4 18 -8 -3 -5 -10 -6 -15 -3 -5 4 -9
-1 -9 -10 0 -10 5 -13 12 -9 7 5 8 3 3 -6 -6 -10 -4 -12 9 -7 10 4 15 3 11 -3
-6 -10 7 -14 32 -11 6 1 14 -3 18 -9 3 -6 0 -7 -10 -4 -11 4 -14 2 -9 -9 3 -9
14 -14 25 -12 18 4 18 3 2 -23 l-17 -27 24 20 24 20 -18 -29 c-10 -16 -13 -25
-7 -22 10 7 16 -7 11 -29 -1 -5 2 -7 5 -3 4 4 17 3 29 -3 17 -8 16 -6 -4 10
-14 11 -21 23 -17 27 4 4 7 1 7 -6 0 -7 3 -10 7 -7 3 4 12 2 20 -4 7 -6 13 -7
13 -3 0 15 -40 35 -53 27 -7 -4 -6 0 2 11 10 12 16 14 21 5 9 -14 18 0 15 24
-2 10 1 14 8 10 6 -4 23 -8 36 -9 20 -3 22 -1 11 7 -13 8 -13 11 3 20 9 6 15
14 12 18 -2 5 5 17 16 27 17 15 22 16 29 4 5 -8 12 -11 16 -7 4 3 1 14 -7 23
-8 10 5 5 29 -11 24 -16 39 -31 34 -34 -12 -8 -24 -43 -13 -36 6 3 14 -3 20
-12 6 -10 11 -13 11 -8 0 6 -5 16 -11 22 -8 8 -7 13 2 18 7 5 10 4 5 -3 -3 -6
-2 -13 4 -17 5 -3 10 -15 10 -25 0 -15 6 -19 25 -18 15 2 21 6 16 11 -13 13
-1 40 13 29 13 -11 46 -12 46 -1 0 4 -4 11 -10 14 -5 3 -10 1 -10 -4 0 -16
-17 -14 -23 2 -11 29 8 35 36 11 25 -22 27 -27 15 -42 -12 -15 -11 -16 4 -3
12 8 16 21 12 35 -6 26 18 52 37 40 7 -4 10 -3 7 2 -8 13 27 70 41 67 6 -2 11
2 11 7 0 14 -13 13 -28 -2 -9 -9 -12 -9 -12 0 0 7 5 12 11 12 5 0 8 4 5 9 -6
9 23 38 33 33 3 -2 7 2 9 10 2 9 0 8 -7 -2 -7 -9 -11 -10 -11 -3 0 6 5 15 10
18 6 4 8 10 5 15 -3 5 6 18 21 29 15 12 23 25 18 32 -5 8 -2 10 8 6 11 -4 16
1 16 19 -1 22 -28 41 -53 36 -5 -1 -1 5 9 13 11 8 27 15 35 15 14 0 14 1 1 10
-8 5 -11 10 -7 10 4 0 3 9 -3 20 -6 12 -17 17 -28 14 -14 -5 -14 -4 -2 4 10 8
18 8 27 0 10 -8 13 -6 14 8 1 11 1 23 0 28 -1 5 6 3 15 -5 16 -12 17 -12 12 3
-4 10 -1 19 8 22 9 3 12 10 9 16 -4 6 1 7 12 3 16 -6 17 -5 3 13 -8 10 -10 16
-6 12 5 -4 15 -3 23 3 9 9 13 8 13 0 0 -6 7 -11 16 -11 8 0 12 -4 9 -10 -3 -5
-1 -10 4 -10 15 0 14 23 -1 40 -11 12 -10 12 3 2 9 -6 20 -8 24 -4 5 4 6 0 2
-9 -4 -12 1 -15 20 -13 14 1 30 9 34 16 7 10 9 10 9 -2 0 -10 3 -11 11 -3 14
14 41 5 32 -11 -4 -8 -2 -7 7 1 15 14 19 52 8 76 -6 11 -5 17 4 17 9 0 9 3 -2
10 -12 8 -12 10 -1 10 10 0 10 6 -4 26 -9 15 -12 23 -6 20 12 -8 14 1 13 47 0
17 3 25 10 21 7 -4 8 -2 4 4 -4 6 -12 10 -19 8 -7 -1 -9 -1 -5 1 3 2 5 15 2
28 -2 14 2 25 11 29 17 6 20 26 4 26 -5 0 -7 -5 -3 -12 5 -7 3 -8 -5 -3 -9 5
-7 12 8 26 21 20 28 35 12 25 -5 -4 -7 3 -4 14 3 11 9 17 14 14 12 -7 11 9 -1
24 -6 6 -7 10 -4 8 3 -3 12 0 19 7 10 9 9 14 -4 24 -9 7 -11 13 -5 13 9 0 22
32 28 72 1 4 7 13 14 20 9 9 12 9 12 -2 0 -7 3 -10 6 -7 4 4 1 13 -6 22 -11
13 -10 14 4 9 12 -5 15 -2 9 12 -4 11 -3 15 4 11 6 -4 8 3 5 18 -2 14 -9 25
-14 25 -15 0 -38 27 -30 35 4 5 2 5 -4 2 -6 -3 -20 2 -31 13 -12 10 -24 16
-27 13 -3 -4 -6 -1 -6 6 0 7 -4 9 -10 6 -5 -3 -10 1 -10 9 0 9 -7 16 -15 16
-9 0 -18 7 -21 15 -4 8 -10 12 -15 10 -4 -3 -17 2 -27 12 -30 30 -50 26 -94
-19 -23 -24 -46 -42 -51 -40 -5 1 -6 -1 -3 -6 3 -5 -12 -25 -34 -44 -29 -27
-35 -39 -27 -47 9 -9 6 -13 -11 -17 -12 -4 -22 -11 -22 -16 0 -5 6 -6 13 -2 6
4 4 -1 -5 -11 -25 -27 -34 -10 -12 22 10 15 19 32 19 36 0 4 7 12 15 17 8 5
11 10 6 10 -5 0 -1 9 10 21 15 17 16 23 6 40 -7 11 -10 24 -7 29 3 5 -13 21
-35 36 l-41 27 -27 -30 c-38 -41 -83 -74 -93 -67 -5 3 -9 1 -9 -5 0 -11 -39
-11 -41 1 -1 4 -2 12 -3 17 0 5 -5 13 -10 18 -5 4 -6 3 -3 -3 4 -7 0 -15 -9
-18 -8 -3 -12 -2 -9 4 3 6 -5 10 -19 10 -14 0 -26 6 -26 13 0 8 -4 7 -10 -3
-6 -9 -10 -10 -10 -3 0 6 -9 10 -20 8 -11 -2 -23 1 -26 7 -4 6 -2 8 4 4 6 -3
14 -1 18 6 4 7 4 10 -1 6 -4 -4 -17 -3 -28 3 -15 9 -18 8 -12 -2 6 -9 3 -11
-9 -6 -10 4 -20 7 -22 7 -2 0 -4 6 -4 14 0 7 -8 20 -17 27 -14 12 -16 12 -9 0
6 -9 5 -12 -5 -9 -8 3 -13 11 -11 17 3 15 -3 14 -17 -2z m37 -23 c5 3 9 0 9
-7 0 -13 -70 -17 -83 -4 -4 4 3 6 17 5 16 -2 23 1 21 11 -3 12 0 12 12 2 8 -7
19 -10 24 -7z m-83 -87 c-3 -14 0 -17 13 -13 10 4 7 -2 -8 -14 l-25 -21 25 6
c19 5 22 4 10 -4 -10 -7 -11 -11 -2 -11 6 0 12 -5 12 -11 0 -8 -4 -8 -15 1
-17 14 -38 4 -29 -13 4 -8 2 -7 -7 1 -9 8 -10 15 -4 20 13 9 17 32 6 32 -5 0
-12 -8 -15 -17 -5 -12 -9 -14 -18 -5 -14 14 -32 16 -24 4 3 -5 -1 -9 -9 -9 -9
0 -14 7 -13 16 2 10 -5 16 -19 17 -12 1 -20 -2 -17 -7 2 -4 12 -5 22 -2 13 5
14 3 6 -6 -9 -10 -17 -10 -32 -2 -10 6 -22 8 -26 6 -3 -3 -2 0 3 6 4 6 15 11
22 12 8 2 20 6 27 11 9 5 19 1 28 -10 9 -11 12 -13 8 -5 -3 7 0 17 7 22 19 12
39 11 39 -1 0 -5 -5 -9 -11 -7 -6 1 -14 -5 -16 -13 -3 -10 -2 -11 4 -4 4 6 16
10 25 9 11 -2 15 3 13 14 -2 10 3 18 10 18 8 0 12 -8 10 -20z m153 13 c7 -6
28 -5 33 2 3 4 15 -1 26 -12 16 -14 23 -16 27 -7 4 7 4 2 2 -11 -3 -17 -1 -21
7 -14 14 11 47 12 47 1 0 -4 -17 -10 -37 -14 -62 -13 -74 -13 -69 1 3 8 0 11
-9 7 -9 -3 -18 4 -23 18 l-9 23 -5 -22 c-4 -12 -2 -20 3 -16 5 3 6 -2 3 -10
-3 -9 -1 -16 6 -16 6 0 8 5 4 12 -4 7 -3 8 5 4 6 -4 9 -11 6 -16 -3 -5 -1 -11
5 -15 6 -4 8 -11 4 -16 -3 -6 3 -13 15 -16 11 -3 18 -10 14 -16 -4 -7 0 -8 12
-3 14 5 16 4 6 -7 -9 -11 -8 -17 4 -27 10 -9 15 -9 15 -1 0 6 -6 11 -12 12 -9
0 -10 2 -1 5 14 6 65 -44 52 -51 -5 -4 -8 -14 -8 -23 1 -15 2 -15 6 1 5 20 19
22 29 5 5 -7 3 -8 -6 -3 -9 6 -11 4 -6 -4 5 -7 14 -10 21 -7 7 2 16 2 20 -2 4
-4 15 -8 26 -8 10 -1 27 -2 37 -3 10 0 19 -9 20 -18 1 -28 -8 -66 -15 -59 -3
3 -12 -2 -19 -12 -7 -9 -21 -17 -31 -17 -10 0 -17 -6 -15 -15 2 -12 -1 -11
-11 2 -8 10 -18 14 -22 10 -5 -4 -5 -1 -1 6 4 7 12 10 17 7 19 -12 8 12 -16
35 -14 13 -25 32 -25 42 0 10 -5 18 -11 18 -5 0 -7 -6 -4 -12 4 -7 -16 10 -44
38 -27 28 -53 49 -56 46 -3 -4 -3 1 1 11 5 13 2 16 -10 11 -10 -4 -18 0 -22
10 -10 26 -36 20 -29 -6 5 -20 5 -21 -5 -5 -20 31 -19 53 1 54 10 1 22 -3 25
-9 4 -7 10 -5 16 3 7 10 8 5 4 -16 l-5 -30 13 30 c15 33 11 49 -9 41 -7 -2
-21 1 -31 8 -11 7 -27 12 -36 10 -10 -1 -20 1 -23 5 -6 10 36 8 53 -3 7 -4 16
-5 20 -1 4 3 -1 11 -11 16 -21 12 -22 29 -1 29 8 0 12 5 9 10 -4 6 -11 7 -17
4 -6 -4 -8 -2 -5 4 6 8 35 10 45 2z m-92 -15 c-1 -8 -5 -17 -8 -21 -5 -4 -4
16 1 34 3 9 9 -1 7 -13z m-489 -35 c2 -18 0 -18 -13 -6 -17 18 -18 26 -1 26 7
0 13 -9 14 -20z m28 -41 c-4 -5 0 -12 9 -15 9 -3 12 -12 9 -21 -4 -9 -2 -14 3
-10 6 3 11 -4 11 -16 2 -17 0 -19 -7 -7 -5 8 -15 15 -21 15 -7 0 -14 7 -16 15
-4 13 -3 13 6 0 8 -11 11 -12 11 -2 0 7 -7 20 -15 29 -16 15 -11 38 6 27 5 -3
7 -10 4 -15z m405 -29 c6 0 8 6 4 13 -4 6 -3 8 1 4 17 -15 13 -35 -6 -30 -10
3 -19 0 -19 -6 0 -6 -7 -11 -15 -11 -8 0 -14 -6 -12 -12 1 -7 -4 -12 -12 -10
-18 4 -43 -19 -37 -34 3 -7 1 -16 -4 -19 -5 -3 -11 3 -13 12 -4 15 -5 15 -6
-2 -1 -11 -22 -40 -48 -65 -26 -25 -44 -39 -39 -33 5 9 2 11 -8 7 -12 -5 -11
-10 7 -27 13 -12 21 -21 18 -20 -2 2 -11 -3 -19 -10 -13 -9 -14 -9 -8 1 4 7 1
12 -9 12 -10 0 -13 -5 -9 -12 4 -6 -4 -3 -18 8 -17 13 -22 21 -14 26 10 7 2
12 -16 9 -4 0 -4 7 -1 17 6 15 5 15 -10 3 -16 -13 -17 -12 -8 12 7 17 7 28 1
32 -6 4 -10 -2 -11 -12 0 -14 -2 -15 -6 -3 -3 8 -9 17 -14 20 -4 3 -9 12 -11
20 -2 8 -9 19 -16 25 -10 8 -10 14 3 30 9 11 14 14 10 8 -6 -13 8 -48 17 -41
2 1 12 -5 22 -14 10 -10 15 -18 11 -18 -3 0 -3 -5 0 -10 5 -8 11 -8 20 0 9 8
17 4 29 -15 9 -14 22 -25 29 -25 8 0 8 3 -2 9 -8 5 -9 11 -3 15 6 4 15 -2 21
-11 6 -10 11 -13 11 -6 0 6 -5 15 -11 18 -6 5 -4 12 8 22 17 14 17 14 0 9 -11
-4 -16 -2 -11 5 3 6 17 8 31 4 21 -5 23 -4 11 9 -7 7 -17 11 -23 8 -5 -3 -4 2
4 11 7 9 17 14 22 12 4 -3 13 4 19 15 6 11 15 18 21 15 5 -4 9 2 9 12 0 15 2
15 9 3 6 -8 7 -18 4 -24 -3 -5 -2 -6 4 -3 6 4 9 17 8 30 -2 14 2 24 11 24 7 0
11 -4 8 -9 -3 -4 2 -5 10 -2 9 3 13 11 10 16 -4 6 2 5 14 -1 11 -6 26 -11 32
-11z m37 -36 c-3 -3 -12 -4 -19 -1 -8 3 -5 6 6 6 11 1 17 -2 13 -5z m-107 -34
c0 -5 -5 -10 -11 -10 -5 0 -7 5 -4 10 3 6 8 10 11 10 2 0 4 -4 4 -10z m556 -2
c3 -4 -4 -11 -15 -18 -12 -6 -21 -15 -21 -21 0 -6 5 -7 12 -3 7 4 8 3 4 -4 -4
-7 -15 -16 -24 -21 -14 -8 -18 -5 -20 15 -1 15 6 27 18 34 11 6 18 15 15 20
-6 9 21 8 31 -2z m-395 -31 c-10 -9 -11 -8 -5 6 3 10 9 15 12 12 3 -3 0 -11
-7 -18z m-311 -16 c0 -3 -4 -12 -9 -19 -6 -11 -9 -9 -13 5 -3 12 0 20 8 20 8
0 14 -3 14 -6z m973 -482 c-8 -8 -13 -7 -18 2 -5 8 -4 10 3 5 7 -4 12 -2 12 5
0 7 3 9 7 6 4 -4 2 -12 -4 -18z m-1173 -73 c0 -3 -4 -8 -10 -11 -5 -3 -10 -1
-10 4 0 6 5 11 10 11 6 0 10 -2 10 -4z m45 -71 l20 -16 -20 10 c-11 5 -29 17
-40 26 l-20 16 20 -10 c11 -5 29 -17 40 -26z m15 31 c0 -3 -4 -8 -10 -11 -5
-3 -10 -1 -10 4 0 6 5 11 10 11 6 0 10 -2 10 -4z m832 -5 c-11 -7 -11 -9 2
-14 8 -3 18 -2 21 3 9 14 27 12 23 -2 -2 -6 -13 -13 -24 -15 -10 -2 -26 -5
-34 -7 -17 -4 -40 11 -40 27 0 6 6 3 13 -8 10 -12 16 -14 21 -7 4 7 1 12 -6
12 -9 0 -9 3 2 10 8 5 20 10 25 10 6 0 4 -4 -3 -9z m78 -20 c0 -5 -7 -12 -16
-15 -14 -5 -15 -4 -4 9 14 17 20 19 20 6z m-104 -296 c-1 -8 -5 -17 -8 -21 -5
-4 -4 16 1 34 3 9 9 -1 7 -13z m-359 -77 c-3 -8 -6 -5 -6 6 -1 11 2 17 5 13 3
-3 4 -12 1 -19z"/>
<path d="M1090 1561 c0 -5 11 -8 25 -8 30 0 28 6 -4 12 -11 2 -21 0 -21 -4z"/>
<path d="M1135 1530 c3 -5 8 -10 11 -10 2 0 4 5 4 10 0 6 -5 10 -11 10 -5 0
-7 -4 -4 -10z"/>
<path d="M1126 1402 c-3 -5 10 -24 29 -42 19 -19 35 -30 35 -24 0 5 -9 16 -20
24 -14 10 -16 16 -7 22 8 6 5 8 -8 6 -12 -2 -19 2 -17 10 2 14 -4 16 -12 4z"/>
<path d="M1257 1319 c4 -13 8 -18 11 -10 2 7 -1 18 -6 23 -8 8 -9 4 -5 -13z"/>
<path d="M1223 1310 c-1 -10 8 -26 20 -36 12 -10 17 -12 10 -5 -6 7 -9 19 -7
26 3 6 -1 17 -8 23 -11 8 -14 7 -15 -8z"/>
<path d="M1300 1320 c0 -6 7 -10 15 -10 8 0 15 2 15 4 0 2 -7 6 -15 10 -8 3
-15 1 -15 -4z"/>
<path d="M1276 1293 c-6 -14 -5 -15 5 -6 7 7 10 15 7 18 -3 3 -9 -2 -12 -12z"/>
<path d="M1299 1278 c-4 -15 -6 -50 -3 -41 3 7 5 15 4 19 -1 4 4 11 12 15 10
7 10 9 1 9 -7 0 -13 -1 -14 -2z"/>
<path d="M796 1393 c-6 -14 -5 -15 5 -6 7 7 10 15 7 18 -3 3 -9 -2 -12 -12z"/>
<path d="M597 1364 c-3 -5 1 -15 9 -22 16 -14 18 -5 5 17 -5 7 -11 9 -14 5z"/>
<path d="M773 1336 c-13 -6 -23 -14 -23 -19 0 -9 36 9 45 23 3 6 5 9 3 9 -2
-1 -13 -6 -25 -13z"/>
<path d="M656 1315 c-3 -9 1 -18 9 -21 8 -4 13 -10 10 -14 -3 -5 -1 -11 4 -14
5 -4 8 2 7 11 -2 9 -8 19 -14 21 -6 2 -8 10 -5 18 3 8 3 14 0 14 -3 0 -8 -7
-11 -15z"/>
<path d="M676 1238 c3 -4 11 -5 19 -1 21 7 19 12 -4 10 -11 0 -18 -5 -15 -9z"/>
<path d="M446 1568 c3 -5 10 -6 15 -3 13 9 11 12 -6 12 -8 0 -12 -4 -9 -9z"/>
<path d="M1842 1385 c4 -4 3 -16 -3 -26 -5 -11 -7 -19 -5 -19 3 0 10 9 16 19
7 15 7 22 -2 27 -7 4 -10 4 -6 -1z"/>
<path d="M1827 1316 c-4 -10 -1 -13 8 -9 8 3 12 9 9 14 -7 12 -11 11 -17 -5z"/>
<path d="M1573 841 c1 -5 -7 -16 -17 -24 -15 -11 -16 -16 -6 -22 9 -5 11 -4 6
3 -7 11 6 17 27 13 5 -1 6 3 2 9 -3 5 -1 10 5 10 6 0 8 5 5 10 -8 13 -26 13
-22 1z"/>
<path d="M357 829 c7 -7 15 -10 18 -7 3 3 -2 9 -12 12 -14 6 -15 5 -6 -5z"/>
<path d="M393 827 c0 -8 6 -14 14 -14 9 0 10 4 2 14 -6 7 -12 13 -14 13 -1 0
-2 -6 -2 -13z"/>
<path d="M1507 756 c-4 -10 -1 -13 9 -9 15 6 19 23 5 23 -5 0 -11 -7 -14 -14z"/>
<path d="M473 704 c0 -16 13 -19 21 -5 3 5 0 11 -7 14 -8 3 -14 -1 -14 -9z"/>
<path d="M1490 680 c0 -5 9 -8 20 -7 21 1 18 10 -5 13 -8 1 -15 -2 -15 -6z"/>
<path d="M1461 566 c-9 -10 -8 -15 3 -19 11 -4 13 -1 9 10 -5 12 -3 14 7 8 9
-5 11 -4 6 3 -9 15 -11 15 -25 -2z"/>
<path d="M1084 388 c-4 -7 -9 -24 -10 -38 -3 -25 -3 -25 13 4 12 22 17 26 24
15 8 -12 10 -12 18 1 9 12 11 12 17 -4 5 -13 9 -15 15 -5 12 20 -10 42 -27 28
-11 -9 -18 -8 -28 0 -11 9 -16 9 -22 -1z"/>
<path d="M825 380 c-3 -6 -10 -8 -15 -5 -5 3 -12 0 -16 -6 -4 -8 -3 -9 4 -5 7
4 12 3 12 -2 0 -5 10 -13 23 -19 19 -9 23 -8 24 7 2 23 -22 46 -32 30z m25
-20 c0 -5 -4 -10 -9 -10 -6 0 -13 5 -16 10 -3 6 1 10 9 10 9 0 16 -4 16 -10z"/>
<path d="M684 352 c-6 -4 -11 -15 -11 -25 0 -12 3 -15 11 -7 7 7 16 4 29 -12
18 -23 18 -23 8 -1 -6 12 -16 25 -21 28 -6 4 -8 11 -5 16 7 11 4 11 -11 1z"/>
<path d="M875 349 c-4 -6 -5 -12 -2 -15 2 -3 7 2 10 11 7 17 1 20 -8 4z"/>
<path d="M1095 339 c-4 -6 -5 -12 -2 -15 2 -3 7 2 10 11 7 17 1 20 -8 4z"/>
<path d="M1130 340 c0 -5 5 -10 11 -10 5 0 7 5 4 10 -3 6 -8 10 -11 10 -2 0
-4 -4 -4 -10z"/>
<path d="M1004 313 c3 -4 0 -13 -6 -22 -7 -9 -8 -13 -4 -9 5 4 16 2 25 -5 14
-10 14 -10 4 4 -7 9 -10 19 -6 22 3 4 11 -1 18 -9 11 -15 12 -15 12 0 0 9 -3
16 -6 17 -3 0 -14 2 -24 4 -11 2 -16 1 -13 -2z"/>
<path d="M894 289 c0 -10 4 -19 8 -19 4 0 8 6 8 14 0 8 -4 17 -8 20 -4 2 -8
-4 -8 -15z"/>
<path d="M955 220 c3 -5 8 -10 11 -10 2 0 4 5 4 10 0 6 -5 10 -11 10 -5 0 -7
-4 -4 -10z"/>
</g>
</svg>
